<svg xmlns="http://www.w3.org/2000/svg" viewBox="0 0 64 64" width="64" height="64" role="img" aria-label="Intentloom"><defs><mask id="ilmA"><rect width="64" height="64" fill="#fff"></rect><circle cx="32" cy="27.192" r="3.65" fill="#000"></circle><circle cx="32" cy="36.808" r="3.65" fill="#000"></circle></mask>
<mask id="ilmB"><rect width="64" height="64" fill="#fff"></rect><circle cx="27.192" cy="32" r="3.65" fill="#000"></circle><circle cx="36.808" cy="32" r="3.65" fill="#000"></circle></mask></defs><g fill="none" stroke="currentColor" stroke-width="5" stroke-linecap="round" stroke-linejoin="round">
<g mask="url(#ilmB)"><path transform="translate(32 32) rotate(-45)" d="M13.917,-7.111 A8.2,8.2 0 1,1 13.917,7.111 A27.95,27.95 0 0,1 -13.917,7.111 A8.2,8.2 0 1,1 -13.917,-7.111 A27.95,27.95 0 0,1 13.917,-7.111 Z"></path></g>
<g mask="url(#ilmA)"><path transform="translate(32 32) rotate(45)" d="M13.917,-7.111 A8.2,8.2 0 1,1 13.917,7.111 A27.95,27.95 0 0,1 -13.917,7.111 A8.2,8.2 0 1,1 -13.917,-7.111 A27.95,27.95 0 0,1 13.917,-7.111 Z"></path></g></g></svg>
